<?xml version="1.0" encoding="utf-8"?>
<!-- Generator: Adobe Illustrator 15.0.2, SVG Export Plug-In . SVG Version: 6.00 Build 0)  -->
<!DOCTYPE svg PUBLIC "-//W3C//DTD SVG 1.1//EN" "http://www.w3.org/Graphics/SVG/1.1/DTD/svg11.dtd">
<svg version="1.1" id="Layer_1" xmlns="http://www.w3.org/2000/svg" xmlns:xlink="http://www.w3.org/1999/xlink" x="0px" y="0px"
	 width="512px" height="452.465px" viewBox="0 0 512 452.465" enable-background="new 0 0 512 452.465" xml:space="preserve">
<path fill="#FFF" d="M119.069,0h11.907v59.535l-11.907,0.006c-32.878,0-59.534,26.65-59.534,59.534v166.692
	c0,32.884,26.656,59.535,59.534,59.535h11.907v-47.628l80.372,77.395l-80.372,77.396v-47.628h-11.907
	C53.309,404.837,0,351.535,0,285.768V119.069C0,53.313,53.309,0,119.069,0z M202.419,59.535H512v59.534H202.419V59.535z
	 M238.14,154.791H512v59.534H238.14V154.791z M202.419,250.047H512v59.534H202.419V250.047z"/>
</svg>
