<?xml version="1.0" encoding="utf-8"?>
<!-- Generator: Adobe Illustrator 15.0.2, SVG Export Plug-In . SVG Version: 6.00 Build 0)  -->
<!DOCTYPE svg PUBLIC "-//W3C//DTD SVG 1.1//EN" "http://www.w3.org/Graphics/SVG/1.1/DTD/svg11.dtd">
<svg version="1.1" id="Layer_1" xmlns="http://www.w3.org/2000/svg" xmlns:xlink="http://www.w3.org/1999/xlink" x="0px" y="0px"
	 width="512px" height="345.303px" viewBox="0 0 512 345.303" enable-background="new 0 0 512 345.303" xml:space="preserve">
<path fill="#FFF" d="M202.419,0H512v59.535H202.419V0z M238.14,95.256H512v59.535H238.14V95.256z M238.14,190.512H512v59.535H238.14V190.512z
	 M202.419,285.768H512v59.535H202.419V285.768z M59.535,142.884c0,26.303,21.325,47.628,47.628,47.628h23.813v-47.628l80.372,77.396
	l-80.372,77.396v-47.628h-23.813C47.977,250.047,0,202.069,0,142.884v-35.721C0,47.977,47.977,0,107.163,0h23.813v59.535h-23.813
	c-26.303,0-47.628,21.325-47.628,47.628V142.884z"/>
</svg>
