<?xml version="1.0" encoding="utf-8"?>
<!-- Generator: Adobe Illustrator 15.0.2, SVG Export Plug-In . SVG Version: 6.00 Build 0)  -->
<!DOCTYPE svg PUBLIC "-//W3C//DTD SVG 1.1//EN" "http://www.w3.org/Graphics/SVG/1.1/DTD/svg11.dtd">
<svg version="1.1" id="Layer_1" xmlns="http://www.w3.org/2000/svg" xmlns:xlink="http://www.w3.org/1999/xlink" x="0px" y="0px"
	 width="512px" height="834.252px" viewBox="0 0 512 834.252" enable-background="new 0 0 512 834.252" xml:space="preserve">
<path fill="#FFF" d="M301.435,0c42.414,0,76.772,34.359,76.772,76.772s-34.358,76.772-76.772,76.772c-42.402,0-76.772-34.359-76.772-76.772
	S259.032,0,301.435,0z M449.496,794.5c3.77,17.779-7.583,35.259-25.341,39.028c-17.779,3.771-35.237-7.562-39.029-25.341
	l-37.594-176.958l-0.6-3.941L234.741,493.601l-31.811-8.847l-17.329,123.363c-1.05,7.476-11.589,29.796-14.77,34.68L60.504,812.707
	c-9.896,15.23-30.279,19.558-45.52,9.661s-19.568-30.268-9.671-45.52l115.126-177.9l22.609-178.606
	c1.007-7.176,15.23-73.816,37.005-168.347L97.68,295.972L75.605,410.51c-2.859,14.865-17.244,24.591-32.11,21.742
	c-14.866-2.871-24.602-17.244-21.731-32.11l22.61-117.322c0.354-1.842,6.951-24.27,16.076-29.132l148.896-79.493
	c1.639-0.878,30.492-15.166,50.96-15.166c37.315,0,68.547,16.451,74.009,48.025l60.343,129.403l0.536,1.222l100.1,42.499
	c13.923,5.912,20.436,22.021,14.523,35.944c-5.912,13.944-22.021,20.436-35.944,14.522l-107.704-45.712
	c-7.798-3.299-13.26-9.768-21.207-25.298l-27.161-58.2l-32.389,150.182l114.28,136.172c4.605,5.484,11.332,25.705,12.188,29.775
	L449.496,794.5z"/>
</svg>
