<?xml version="1.0" encoding="utf-8"?>
<!-- Generator: Adobe Illustrator 15.0.2, SVG Export Plug-In . SVG Version: 6.00 Build 0)  -->
<!DOCTYPE svg PUBLIC "-//W3C//DTD SVG 1.1//EN" "http://www.w3.org/Graphics/SVG/1.1/DTD/svg11.dtd">
<svg version="1.1" id="motion-clockwise-12" xmlns="http://www.w3.org/2000/svg" xmlns:xlink="http://www.w3.org/1999/xlink"
	 x="0px" y="0px" width="10px" height="10px" viewBox="0 0 512 512" enable-background="new 0 0 512 512" xml:space="preserve">
<g>
	<path fill="#FFF" d="M209.911,368.693c9.958,4.656,20.482,7.637,31.573,8.945l7.333-55.86c-5.647-0.747-10.911-2.24-15.791-4.474
		L209.911,368.693z"/>
	<path fill="#FFF" d="M256.143,322.332c-0.753,0-1.505-0.1-2.258-0.28l-2.253,56.425h4.508c7.141-0.002,14.285-0.656,21.425-1.956
		l-10.993-55.307C263.186,321.959,259.713,322.332,256.143,322.332z"/>
	<path fill="#FFF" d="M212.726,301.665l-44.539,35.467c9.398,11.354,20.577,20.575,33.545,27.649l27.062-49.434
		C222.593,311.813,217.236,307.247,212.726,301.665z"/>
	<path fill="#FFF" d="M256.141,211.446v21.51l60.612-49.722l-60.888-49.712l0.281,21.51c-19.546,0-37.64,4.508-54.271,13.548
		c-16.633,9.029-30.02,21.267-40.166,36.721l47.361,31.285C220.149,219.831,235.842,211.446,256.141,211.446z"/>
	<path fill="#FFF" d="M271.366,320.095l15.505,54.188c7.328-2.055,14.468-4.847,21.422-8.382l-26.498-49.995
		C278.408,317.576,274.937,318.977,271.366,320.095z"/>
	<path fill="#FFF" d="M200.892,275.689l-56.38,8.654c2.629,16.576,8.736,31.75,18.322,45.525l47.078-31.84
		C205.214,291.139,202.204,283.692,200.892,275.689z"/>
	<path fill="#FFF" d="M200.044,266.753c0-9.13,2.16-17.692,6.487-25.703l-50.467-25.976c-8.646,16.205-12.968,33.435-12.968,51.679
		c0,2.599,0.095,5.21,0.281,7.819l56.945-3.908C200.131,269.354,200.044,268.053,200.044,266.753z"/>
	<path fill="#FFF" d="M309.984,281.273l54.973,14.248c0.936-3.354,1.784-6.893,2.539-10.62l-56.38-8.937
		C310.92,277.636,310.546,279.41,309.984,281.273z"/>
	<path fill="#FFF" d="M306.6,290.491l51.586,23.738c1.506-3.354,2.913-6.701,4.23-10.056l-53.842-18.711
		C308.01,287.137,307.357,288.811,306.6,290.491z"/>
	<path fill="#FFF" d="M311.678,263.953c0.184,4.1,0.184,6.607,0,7.547l56.945,4.463c0.183-3.909,0.28-7.91,0.28-12.01H311.678z"/>
	<path fill="#FFF" d="M301.527,298.865l46.797,32.404c2.064-2.983,3.946-6.055,5.64-9.221l-49.336-27.646
		C303.685,295.893,302.654,297.375,301.527,298.865z"/>
	<path fill="#FFF" d="M295.322,306.412l40.033,39.939c2.63-2.609,5.07-5.218,7.328-7.819L298.988,302.5
		C297.674,303.803,296.455,305.102,295.322,306.412z"/>
	<path fill="#FFF" d="M286.025,313.394l30.728,47.761c4.323-2.793,8.457-5.866,12.401-9.221l-36.93-43.014
		C290.343,310.594,288.278,312.087,286.025,313.394z"/>
</g>
</svg>
